<svg width="145" height="145" viewBox="0 0 145 145" fill="none" xmlns="http://www.w3.org/2000/svg">
<path d="M68.8184 38.425C56.516 36.8277 44.3836 33.8711 32.9195 41.0191C22.2145 47.7027 14.0129 59.1101 10.8863 71.3219C6.46836 88.5746 9.09648 108.218 20.8891 122.038C27.3687 129.616 38.1418 137.693 47.7707 140.695C72.4887 148.421 103.041 144.762 118.549 121.732C122.978 115.162 127.419 106.246 129.039 98.4527C133.581 76.6348 128.495 51.0672 105.907 41.6762C95.8473 37.4961 85.0969 39.7957 74.5844 39.0367C72.6473 38.8894 70.7328 38.6742 68.8184 38.425V38.425Z" fill="#DB4437"/>
<path d="M106.394 0.65708C114.595 0.385205 128.348 4.05552 133.91 9.91216C134.589 10.6485 135.892 11.6793 136.085 12.5856C136.391 14.0696 135.212 15.3383 134.352 16.4258C122.117 32.0473 97.0594 40.1469 81.2 29.5325C78.9797 28.0485 80.1691 25.2958 80.6223 23.0188C82.4461 13.9336 89.4582 5.59614 98.1015 2.29966C100.809 1.2688 103.607 0.747705 106.394 0.65708V0.65708Z" fill="#BDCF46"/>
<path d="M80.8941 24.8312C80.8149 24.5367 80.6676 24.2762 80.4523 24.0949C79.9992 23.7438 79.059 23.3926 78.5266 23.2C77.7223 22.8941 76.8613 22.7695 76.0231 22.7695C75.7059 22.7695 75.4 22.7809 75.1055 22.8148C73.9727 22.9508 72.9984 23.3699 72.3527 24.2875C71.4918 25.477 71.6391 26.825 71.4125 28.207C71.0953 30.1781 70.1664 31.968 69.6566 33.8938C69.2602 35.3777 68.943 36.8844 68.6598 38.4023C68.4445 39.5125 68.2633 40.6227 68.1273 41.7441C67.6402 45.9016 66.9606 50.059 67.1418 54.2617C67.1531 54.8395 67.1758 55.4172 67.2098 55.9949C67.2211 56.2895 67.2551 56.5727 67.3004 56.8672C67.3684 57.2523 67.391 57.6941 67.4363 58.1359C67.459 58.2945 67.4703 58.4531 67.493 58.6117C67.6176 59.2914 67.8555 59.9258 68.5012 60.277C69.3055 60.7301 70.257 60.934 71.2086 60.9453C71.5031 60.9453 71.7863 60.9 72.0809 60.8773L72.8285 60.832C73.191 60.7301 73.5535 60.5941 73.9387 60.4922C74.5391 60.3449 75.1281 60.0391 75.5473 59.5746C75.9211 59.1555 75.9664 58.725 75.9438 58.2266L75.9098 57.8754C75.8645 57.4336 75.8305 56.9805 75.8078 56.5273C75.7625 55.6324 75.7285 54.7148 75.7059 53.8199C75.6379 51.8035 75.6719 49.7645 75.8531 47.7481C75.9777 46.5473 76.0344 45.3238 76.1363 44.123C76.2609 42.4465 76.4988 40.7813 76.782 39.116C76.85 38.7648 76.884 38.425 76.952 38.0852C77.3598 35.9555 78.1188 34.041 78.9344 32.0246C79.3082 31.0957 79.4668 30.1102 79.8066 29.2152C80.1805 28.2863 81.0074 27.7766 81.0074 26.6664C81.0074 26.1566 81.0527 25.4203 80.8941 24.8312V24.8312Z" fill="#855C52"/>
<path d="M44.3723 49.3793C42.9223 47.4308 38.9461 47.2383 36.1141 48.2125C32.6137 49.4133 29.4984 52.0301 27.3121 54.9754C25.4316 57.5129 22.6676 62.8371 25.3977 65.7484C26.7344 67.1644 28.3543 66.6094 29.8949 65.839C32.693 64.4457 34.3809 61.3984 36.7371 59.4387C39.1613 57.4336 47.7367 53.8312 44.3723 49.3793V49.3793Z" fill="white"/>
<path d="M67.9914 57.7848C65.3406 57.2184 62.7578 56.2782 60.3336 55.0887C59.0648 54.4657 55.3945 51.543 55.0207 54.6129C54.5449 58.3172 59.6539 61.5117 62.1914 62.7012C66.5641 64.7629 71.4578 65.4992 76.159 64.5477C80.6902 63.6301 84.5531 61.3985 87.4531 57.4789C87.827 56.9692 88.0762 56.3688 88.2574 55.8024C88.9031 53.752 86.6602 53.7293 85.4594 54.3071C84.4852 54.7715 83.6469 55.5192 82.684 55.9836C80.8262 56.8785 78.8777 57.6035 76.8953 57.9887C73.9273 58.5551 70.9254 58.4078 67.9914 57.7848V57.7848Z" fill="#B93221"/>
</svg>
