<svg width="76" height="76" viewBox="0 0 76 76" fill="none" xmlns="http://www.w3.org/2000/svg">
<path d="M38 4.75C19.6383 4.75 4.75 19.6383 4.75 38C4.75 56.3617 19.6383 71.25 38 71.25C56.3617 71.25 71.25 56.3617 71.25 38C71.25 19.6383 56.3617 4.75 38 4.75ZM51.0996 48.2199L48.977 51.1145C48.9308 51.1775 48.8726 51.2308 48.8058 51.2712C48.739 51.3117 48.6648 51.3386 48.5876 51.3503C48.5103 51.362 48.4315 51.3584 48.3557 51.3396C48.2799 51.3207 48.2085 51.2871 48.1457 51.2406L35.8699 42.2898C35.7934 42.2349 35.7313 42.1624 35.6887 42.0785C35.646 41.9945 35.6242 41.9016 35.625 41.8074V21.375C35.625 21.0484 35.8922 20.7812 36.2188 20.7812H39.7887C40.1152 20.7812 40.3824 21.0484 40.3824 21.375V39.7441L50.966 47.3961C51.2332 47.5816 51.2926 47.9527 51.0996 48.2199Z" fill="#4C694A"/>
</svg>
