<svg width="248" height="93" viewBox="0 0 248 93" fill="none" xmlns="http://www.w3.org/2000/svg">
<path d="M26 20C20.8577 20 15.8309 21.5249 11.5552 24.3818C7.27951 27.2387 3.94702 31.2993 1.97914 36.0502C0.0112654 40.8011 -0.503621 46.0288 0.499594 51.0723C1.50281 56.1158 3.97907 60.7486 7.61523 64.3848C11.2514 68.0209 15.8842 70.4972 20.9277 71.5004C25.9712 72.5036 31.1989 71.9887 35.9498 70.0209C40.7007 68.053 44.7613 64.7205 47.6182 60.4448C50.4751 56.1691 52 51.1423 52 46C52 42.5856 51.3275 39.2047 50.0209 36.0502C48.7142 32.8958 46.7991 30.0295 44.3848 27.6152C41.9705 25.2009 39.1042 23.2858 35.9498 21.9791C32.7953 20.6725 29.4144 20 26 20V20ZM33.046 49.354C33.2897 49.5957 33.4831 49.8833 33.6151 50.2001C33.7471 50.5169 33.8151 50.8568 33.8151 51.2C33.8151 51.5432 33.7471 51.8831 33.6151 52.1999C33.4831 52.5167 33.2897 52.8043 33.046 53.046C32.8043 53.2897 32.5167 53.4831 32.1999 53.6151C31.8831 53.7471 31.5432 53.8151 31.2 53.8151C30.8568 53.8151 30.5169 53.7471 30.2001 53.6151C29.8833 53.4831 29.5957 53.2897 29.354 53.046L26 49.666L22.646 53.046C22.4043 53.2897 22.1167 53.4831 21.7999 53.6151C21.4831 53.7471 21.1432 53.8151 20.8 53.8151C20.4568 53.8151 20.1169 53.7471 19.8001 53.6151C19.4833 53.4831 19.1957 53.2897 18.954 53.046C18.7103 52.8043 18.5169 52.5167 18.3849 52.1999C18.2529 51.8831 18.1849 51.5432 18.1849 51.2C18.1849 50.8568 18.2529 50.5169 18.3849 50.2001C18.5169 49.8833 18.7103 49.5957 18.954 49.354L22.334 46L18.954 42.646C18.4644 42.1564 18.1894 41.4924 18.1894 40.8C18.1894 40.1076 18.4644 39.4436 18.954 38.954C19.4436 38.4644 20.1076 38.1894 20.8 38.1894C21.4924 38.1894 22.1564 38.4644 22.646 38.954L26 42.334L29.354 38.954C29.8436 38.4644 30.5076 38.1894 31.2 38.1894C31.8924 38.1894 32.5564 38.4644 33.046 38.954C33.5356 39.4436 33.8106 40.1076 33.8106 40.8C33.8106 41.4924 33.5356 42.1564 33.046 42.646L29.666 46L33.046 49.354Z" fill="#1E1E1E"/>
<path d="M116.98 59.9219C115.809 61.4453 114.617 62.8516 113.406 64.1406C112.234 65.4297 110.945 66.543 109.539 67.4805C108.133 68.3789 106.59 69.043 104.91 69.4727C103.23 69.9023 101.355 70 99.2852 69.7656C95.7695 69.4141 92.8594 68.4375 90.5547 66.8359C88.2891 65.2344 86.5312 63.2227 85.2812 60.8008C84.0703 58.3789 83.3086 55.6836 82.9961 52.7148C82.6836 49.7461 82.7422 46.6992 83.1719 43.5742C83.5625 40.5273 84.2852 37.5781 85.3398 34.7266C86.3945 31.8359 87.8008 29.2969 89.5586 27.1094C91.3555 24.8828 93.5039 23.1445 96.0039 21.8945C98.543 20.6055 101.473 20.0781 104.793 20.3125C106.082 20.3906 107.332 20.6445 108.543 21.0742C109.754 21.4648 110.887 21.9727 111.941 22.5977C112.996 23.2227 113.914 23.9453 114.695 24.7656C115.516 25.5859 116.16 26.4648 116.629 27.4023C116.941 28.0664 116.98 28.6914 116.746 29.2773C116.512 29.8633 116.141 30.3125 115.633 30.625C115.164 30.9375 114.617 31.0938 113.992 31.0938C113.367 31.0547 112.84 30.7422 112.41 30.1562C111.238 28.5938 109.988 27.3633 108.66 26.4648C107.371 25.5664 105.809 25.0781 103.973 25C101.551 24.8828 99.4219 25.3711 97.5859 26.4648C95.7891 27.5195 94.2461 28.9648 92.957 30.8008C91.668 32.5977 90.6328 34.6484 89.8516 36.9531C89.0703 39.2578 88.5039 41.582 88.1523 43.9258C87.8398 46.1133 87.7227 48.3984 87.8008 50.7812C87.918 53.125 88.3867 55.3125 89.207 57.3438C90.0664 59.3359 91.3359 61.0547 93.0156 62.5C94.6953 63.9062 96.9609 64.7852 99.8125 65.1367C101.297 65.332 102.664 65.2539 103.914 64.9023C105.164 64.5117 106.316 63.9453 107.371 63.2031C108.465 62.4219 109.48 61.4844 110.418 60.3906C111.355 59.2578 112.293 58.0469 113.23 56.7578C113.738 56.0156 114.305 55.6641 114.93 55.7031C115.555 55.7031 116.102 55.918 116.57 56.3477C117.039 56.7383 117.332 57.2852 117.449 57.9883C117.605 58.6523 117.449 59.2969 116.98 59.9219ZM124.089 21.543C124.05 20.8398 124.265 20.3516 124.734 20.0781C125.241 19.7656 125.808 19.6289 126.433 19.668C127.058 19.707 127.624 19.8828 128.132 20.1953C128.679 20.4687 128.972 20.8398 129.011 21.3086C129.089 22.1289 129.167 23.6719 129.245 25.9375C129.323 28.1641 129.402 30.7617 129.48 33.7305C129.597 36.6602 129.714 39.8242 129.831 43.2227C129.948 46.6211 130.066 49.9023 130.183 53.0664C130.339 56.1914 130.495 59.0625 130.652 61.6797C130.808 64.2578 130.964 66.25 131.12 67.6562C131.198 68.4375 130.984 69.043 130.476 69.4727C129.968 69.9023 129.362 70.1562 128.659 70.2344C127.995 70.3125 127.37 70.1953 126.784 69.8828C126.198 69.5703 125.866 69.043 125.788 68.3008L124.089 21.543ZM162.252 68.6523C159.83 69.668 157.526 70.1758 155.338 70.1758C153.151 70.1758 151.12 69.8047 149.245 69.0625C147.37 68.2812 145.69 67.207 144.205 65.8398C142.721 64.4336 141.491 62.8516 140.514 61.0938C139.537 59.3359 138.834 57.4609 138.405 55.4688C138.014 53.4766 137.975 51.4844 138.287 49.4922C138.561 47.5 139.108 45.5664 139.928 43.6914C140.787 41.7773 141.94 40.0977 143.385 38.6523C144.87 37.168 146.666 35.9961 148.776 35.1367C150.885 34.2773 153.366 33.8867 156.217 33.9648C158.522 34.043 160.67 34.5508 162.662 35.4883C164.655 36.3867 166.373 37.6562 167.819 39.2969C169.303 40.9375 170.436 42.8906 171.217 45.1562C171.998 47.3828 172.311 49.8438 172.155 52.5391C172.077 54.2188 171.803 55.8789 171.334 57.5195C170.866 59.1602 170.221 60.7031 169.401 62.1484C168.58 63.5547 167.565 64.8242 166.354 65.957C165.182 67.0898 163.815 67.9883 162.252 68.6523ZM143.209 50.2539C142.936 52.4414 143.053 54.5117 143.561 56.4648C144.108 58.418 144.987 60.0977 146.198 61.5039C147.409 62.8711 148.932 63.8867 150.768 64.5508C152.643 65.2148 154.752 65.3711 157.096 65.0195C158.659 64.7852 160.045 64.3164 161.256 63.6133C162.467 62.9102 163.502 62.0508 164.362 61.0352C165.26 59.9805 165.963 58.7891 166.471 57.4609C166.979 56.1328 167.311 54.7266 167.467 53.2422C167.623 51.4844 167.506 49.7852 167.116 48.1445C166.764 46.5039 166.12 45.0391 165.182 43.75C164.245 42.4219 163.034 41.3477 161.549 40.5273C160.104 39.668 158.385 39.1406 156.393 38.9453C155.534 38.8672 154.42 38.9258 153.053 39.1211C151.725 39.3164 150.377 39.8047 149.01 40.5859C147.682 41.3281 146.471 42.4805 145.377 44.043C144.284 45.5664 143.561 47.6367 143.209 50.2539ZM188.228 69.9414C186.666 69.707 185.298 69.2383 184.127 68.5352C182.955 67.832 181.959 67.0117 181.138 66.0742C180.318 65.0977 179.673 64.0625 179.205 62.9688C178.775 61.8359 178.502 60.7422 178.384 59.6875C178.306 58.9453 178.463 58.3789 178.853 57.9883C179.244 57.5586 179.713 57.3047 180.259 57.2266C180.806 57.1094 181.334 57.168 181.841 57.4023C182.388 57.5977 182.759 57.9492 182.955 58.457C183.189 59.043 183.404 59.7266 183.599 60.5078C183.834 61.2891 184.185 62.0312 184.654 62.7344C185.162 63.4375 185.826 64.0625 186.646 64.6094C187.505 65.1562 188.677 65.5078 190.162 65.6641C191.021 65.7422 191.978 65.7422 193.033 65.6641C194.127 65.5859 195.201 65.4297 196.255 65.1953C197.349 64.9609 198.384 64.6484 199.361 64.2578C200.338 63.8281 201.177 63.3203 201.88 62.7344C202.584 62.1094 203.111 61.4062 203.463 60.625C203.814 59.8438 203.892 58.9453 203.697 57.9297C203.345 56.25 202.564 55.0586 201.353 54.3555C200.181 53.6523 198.775 53.1836 197.134 52.9492C195.533 52.6758 193.834 52.5 192.037 52.4219C190.279 52.3438 188.638 52.0703 187.115 51.6016C185.201 50.9766 183.638 50.0977 182.427 48.9648C181.216 47.832 180.357 46.582 179.849 45.2148C179.302 43.7305 179.185 42.2461 179.498 40.7617C179.81 39.2383 180.572 37.9297 181.783 36.8359C182.525 36.1328 183.384 35.5664 184.361 35.1367C185.377 34.668 186.412 34.3164 187.466 34.082C188.56 33.8086 189.673 33.6719 190.806 33.6719C191.939 33.6328 193.033 33.7109 194.088 33.9062C196.08 34.2578 197.935 34.8828 199.654 35.7812C201.412 36.6406 203.072 37.8516 204.634 39.4141C205.181 39.9609 205.396 40.5078 205.279 41.0547C205.201 41.6016 204.927 42.0508 204.459 42.4023C204.029 42.7539 203.521 42.9688 202.935 43.0469C202.349 43.125 201.841 42.9883 201.412 42.6367C199.927 41.3867 198.463 40.3906 197.017 39.6484C195.572 38.8672 194.224 38.3789 192.974 38.1836C192.388 38.1055 191.744 38.0859 191.041 38.125C190.377 38.1641 189.693 38.2617 188.99 38.418C188.287 38.5742 187.603 38.7891 186.939 39.0625C186.314 39.3359 185.767 39.6875 185.298 40.1172C184.166 41.1328 183.873 42.4023 184.42 43.9258C184.81 44.9414 185.591 45.8984 186.763 46.7969C187.974 47.6562 189.517 48.1836 191.392 48.3789C192.72 48.4961 194.205 48.6133 195.845 48.7305C197.525 48.8477 199.146 49.1016 200.709 49.4922C202.271 49.8438 203.677 50.3906 204.927 51.1328C206.216 51.875 207.134 52.9492 207.681 54.3555C208.463 56.3086 208.736 58.0859 208.502 59.6875C208.306 61.2891 207.74 62.7148 206.802 63.9648C205.904 65.1758 204.732 66.2305 203.287 67.1289C201.88 67.9883 200.318 68.6719 198.599 69.1797C196.92 69.6484 195.162 69.9414 193.326 70.0586C191.529 70.2148 189.83 70.1758 188.228 69.9414ZM229.731 70.293C227.192 70.4492 224.966 70.1367 223.052 69.3555C221.177 68.5742 219.595 67.5 218.305 66.1328C217.055 64.7656 216.098 63.1836 215.434 61.3867C214.77 59.5898 214.399 57.7734 214.321 55.9375C214.204 53.0859 214.438 50.4297 215.024 47.9688C215.649 45.4688 216.606 43.3008 217.895 41.4648C219.184 39.5898 220.805 38.0859 222.759 36.9531C224.712 35.7812 226.977 35.0781 229.555 34.8438C231.274 34.6875 232.915 34.9219 234.477 35.5469C236.079 36.1328 237.524 36.9336 238.813 37.9492C240.102 38.9648 241.177 40.0977 242.036 41.3477C242.934 42.5977 243.559 43.8086 243.911 44.9805C244.067 45.5273 244.223 46.1133 244.38 46.7383C244.575 47.3633 244.653 47.9688 244.614 48.5547C244.575 49.1406 244.36 49.6875 243.97 50.1953C243.618 50.7031 242.954 51.0938 241.977 51.3672C240.337 51.8359 238.54 52.2656 236.587 52.6562C234.673 53.0078 232.7 53.3398 230.669 53.6523C228.677 53.9258 226.684 54.1992 224.692 54.4727C222.739 54.7461 220.923 55.0391 219.243 55.3516C219.438 58.9453 220.434 61.6406 222.231 63.4375C224.028 65.1953 226.567 65.918 229.848 65.6055C230.669 65.5273 231.626 65.3906 232.72 65.1953C233.852 64.9609 234.966 64.6289 236.059 64.1992C237.192 63.7305 238.266 63.1445 239.282 62.4414C240.298 61.7383 241.157 60.8398 241.86 59.7461C242.29 59.082 242.837 58.7109 243.501 58.6328C244.165 58.5156 244.77 58.6133 245.317 58.9258C245.864 59.2383 246.255 59.707 246.489 60.332C246.723 60.957 246.626 61.6797 246.196 62.5C245.493 63.7891 244.477 64.9219 243.149 65.8984C241.821 66.8359 240.376 67.6172 238.813 68.2422C237.29 68.8672 235.708 69.3555 234.067 69.707C232.466 70.0195 231.02 70.2148 229.731 70.293ZM219.477 50.1367C219.673 50.2539 220.298 50.2734 221.352 50.1953C222.407 50.1172 223.657 49.9805 225.102 49.7852C226.548 49.5898 228.091 49.3555 229.731 49.082C231.411 48.7695 232.954 48.4766 234.36 48.2031C235.805 47.9297 237.016 47.6758 237.993 47.4414C238.97 47.207 239.536 47.0508 239.692 46.9727C239.302 45.6055 238.716 44.4336 237.934 43.457C237.192 42.4414 236.352 41.6406 235.415 41.0547C234.477 40.4297 233.501 40 232.485 39.7656C231.47 39.4922 230.532 39.4141 229.673 39.5312C226.626 39.9609 224.204 41.1328 222.407 43.0469C220.61 44.9609 219.634 47.3242 219.477 50.1367Z" fill="black"/>
</svg>
