<svg width="110" height="110" viewBox="0 0 110 110" fill="none" xmlns="http://www.w3.org/2000/svg">
<path d="M70.8125 5.84376L25.9531 18.7344L18.9062 20.7969C13.75 22.3438 13.4062 25.2656 14.7812 30.4219L34.2031 101.063C35.5781 106.219 36.9531 107.078 42.2812 105.531L49.3281 103.469L94.1875 90.5781C99.3437 89.0313 102.437 83.7031 101.062 78.375L82.8437 12.7188C81.4687 7.39064 75.9687 4.46876 70.8125 5.84376" fill="#3E4347"/>
<path d="M67.0312 4.8125L22.6875 19.4219L15.6406 21.6563C10.4843 23.375 10.3125 26.2969 11.8593 31.4531L34.2031 101.234C35.9218 106.391 37.2968 107.078 42.4531 105.359L49.5 103.125L93.8437 88.5156C99 86.7969 101.922 81.2969 100.203 76.1406L79.4062 11.1719C77.6875 6.01563 72.1875 3.26563 67.0312 4.8125Z" fill="#D0D0D0"/>
<path d="M63.7656 4.12499L19.9375 20.2812L49.5 103.125L93.3281 86.9687C98.4843 85.0781 101.062 79.4062 99.1718 74.25L76.3125 9.79686C74.5937 4.81249 68.9218 2.23436 63.7656 4.12499" fill="#7AA378"/>
<path d="M13.0626 22.8594C7.9063 24.75 7.9063 27.6719 9.62505 32.8281L34.3751 101.75C36.2657 106.906 37.6407 107.594 42.7969 105.703L49.6719 103.125L19.9376 20.2812L13.0626 22.8594" fill="#3E4347"/>
<path d="M71.3281 36.7813L44.1719 46.9219L40.3906 36.0938L67.5469 26.125L71.3281 36.7813Z" fill="white"/>
</svg>
