<svg width="87" height="87" viewBox="0 0 87 87" fill="none" xmlns="http://www.w3.org/2000/svg">
<path d="M13.3799 22.8085C18.4657 17.2949 26.1616 14.5 36.25 14.5H39.875V24.7189L36.9605 25.3025C31.9942 26.2958 28.5396 28.2496 26.6909 31.117C25.7262 32.6617 25.1791 34.4304 25.1031 36.25H36.25C37.2114 36.25 38.1334 36.6319 38.8133 37.3117C39.4931 37.9916 39.875 38.9136 39.875 39.875V65.25C39.875 69.2484 36.6234 72.5 32.625 72.5H10.875C9.91359 72.5 8.99155 72.1181 8.31173 71.4383C7.63192 70.7584 7.25 69.8364 7.25 68.875V50.75L7.26087 40.1686C7.22825 39.7663 6.5395 30.2325 13.3799 22.8085ZM72.5 72.5H50.75C49.7886 72.5 48.8666 72.1181 48.1867 71.4383C47.5069 70.7584 47.125 69.8364 47.125 68.875V50.75L47.1359 40.1686C47.1032 39.7663 46.4145 30.2325 53.2549 22.8085C58.3407 17.2949 66.0366 14.5 76.125 14.5H79.75V24.7189L76.8355 25.3025C71.8692 26.2958 68.4146 28.2496 66.5659 31.117C65.6012 32.6617 65.0541 34.4304 64.9781 36.25H76.125C77.0864 36.25 78.0084 36.6319 78.6883 37.3117C79.3681 37.9916 79.75 38.9136 79.75 39.875V65.25C79.75 69.2484 76.4984 72.5 72.5 72.5Z" fill="#89BF86"/>
</svg>
